<svg id="visual" viewBox="0 0 1920 300" width="1920" height="300" xmlns="http://www.w3.org/2000/svg" xmlns:xlink="http://www.w3.org/1999/xlink" version="1.1"><path d="M0 81L11.5 77.7C23 74.3 46 67.7 68.8 72.2C91.7 76.7 114.3 92.3 137.2 99C160 105.7 183 103.3 205.8 106.7C228.7 110 251.3 119 274.2 107C297 95 320 62 342.8 52.5C365.7 43 388.3 57 411.2 60.3C434 63.7 457 56.3 480 56.7C503 57 526 65 548.8 79C571.7 93 594.3 113 617.2 111.2C640 109.3 663 85.7 685.8 76.8C708.7 68 731.3 74 754.2 72.2C777 70.3 800 60.7 822.8 67.3C845.7 74 868.3 97 891.2 89.8C914 82.7 937 45.3 960 31.3C983 17.3 1006 26.7 1028.8 45.5C1051.7 64.3 1074.3 92.7 1097.2 94.2C1120 95.7 1143 70.3 1165.8 68.8C1188.7 67.3 1211.3 89.7 1234.2 103.3C1257 117 1280 122 1302.8 107.8C1325.7 93.7 1348.3 60.3 1371.2 47.3C1394 34.3 1417 41.7 1440 48C1463 54.3 1486 59.7 1508.8 64.8C1531.7 70 1554.3 75 1577.2 86.5C1600 98 1623 116 1645.8 122.5C1668.7 129 1691.3 124 1714.2 110.7C1737 97.3 1760 75.7 1782.8 65C1805.7 54.3 1828.3 54.7 1851.2 61.3C1874 68 1897 81 1908.5 87.5L1920 94L1920 0L1908.5 0C1897 0 1874 0 1851.2 0C1828.3 0 1805.7 0 1782.8 0C1760 0 1737 0 1714.2 0C1691.3 0 1668.7 0 1645.8 0C1623 0 1600 0 1577.2 0C1554.3 0 1531.7 0 1508.8 0C1486 0 1463 0 1440 0C1417 0 1394 0 1371.2 0C1348.3 0 1325.7 0 1302.8 0C1280 0 1257 0 1234.2 0C1211.3 0 1188.7 0 1165.8 0C1143 0 1120 0 1097.2 0C1074.3 0 1051.7 0 1028.8 0C1006 0 983 0 960 0C937 0 914 0 891.2 0C868.3 0 845.7 0 822.8 0C800 0 777 0 754.2 0C731.3 0 708.7 0 685.8 0C663 0 640 0 617.2 0C594.3 0 571.7 0 548.8 0C526 0 503 0 480 0C457 0 434 0 411.2 0C388.3 0 365.7 0 342.8 0C320 0 297 0 274.2 0C251.3 0 228.7 0 205.8 0C183 0 160 0 137.2 0C114.3 0 91.7 0 68.8 0C46 0 23 0 11.5 0L0 0Z" fill="#FFFFFF" stroke-linecap="round" stroke-linejoin="miter"></path></svg>